<svg width="1028" height="362" viewBox="0 0 1028 362" fill="none" xmlns="http://www.w3.org/2000/svg">
<g clip-path="url(#clip0_3_80)">
<path d="M338.757 226.729L193.018 294.058V256.239L296.57 211.814L295.398 213.838V208.938L296.57 210.962L193.018 166.537V128.717L338.757 196.047V226.729Z" fill="url(#paint0_linear_3_80)"/>
<path d="M56.6651 127.783L202.205 60.024L202.316 97.8434L98.8964 142.573L100.062 140.546L100.077 145.446L98.8989 143.425L202.58 187.545L202.692 225.364L56.7555 158.465L56.6651 127.783Z" fill="url(#paint1_linear_3_80)"/>
<path d="M379.45 243V138H399.55L444.25 212.1H433.6L477.55 138H497.5L497.8 243H475L474.85 172.95H479.05L443.95 231.9H433L397.15 172.95H402.25V243H379.45ZM522.712 243V138H574.012C587.212 138 597.112 140.5 603.712 145.5C610.412 150.5 613.762 157.1 613.762 165.3C613.762 170.8 612.412 175.6 609.712 179.7C607.012 183.7 603.312 186.8 598.612 189C593.912 191.2 588.512 192.3 582.412 192.3L585.262 186.15C591.862 186.15 597.712 187.25 602.812 189.45C607.912 191.55 611.862 194.7 614.662 198.9C617.562 203.1 619.012 208.25 619.012 214.35C619.012 223.35 615.462 230.4 608.362 235.5C601.262 240.5 590.812 243 577.012 243H522.712ZM546.862 224.7H575.212C581.512 224.7 586.262 223.7 589.462 221.7C592.762 219.6 594.412 216.3 594.412 211.8C594.412 207.4 592.762 204.15 589.462 202.05C586.262 199.85 581.512 198.75 575.212 198.75H545.062V181.05H571.012C576.912 181.05 581.412 180.05 584.512 178.05C587.712 175.95 589.312 172.8 589.312 168.6C589.312 164.5 587.712 161.45 584.512 159.45C581.412 157.35 576.912 156.3 571.012 156.3H546.862V224.7ZM685.259 243V227.25L683.759 223.8V195.6C683.759 190.6 682.209 186.7 679.109 183.9C676.109 181.1 671.459 179.7 665.159 179.7C660.859 179.7 656.609 180.4 652.409 181.8C648.309 183.1 644.809 184.9 641.909 187.2L633.509 170.85C637.909 167.75 643.209 165.35 649.409 163.65C655.609 161.95 661.909 161.1 668.309 161.1C680.609 161.1 690.159 164 696.959 169.8C703.759 175.6 707.159 184.65 707.159 196.95V243H685.259ZM660.659 244.2C654.359 244.2 648.959 243.15 644.459 241.05C639.959 238.85 636.509 235.9 634.109 232.2C631.709 228.5 630.509 224.35 630.509 219.75C630.509 214.95 631.659 210.75 633.959 207.15C636.359 203.55 640.109 200.75 645.209 198.75C650.309 196.65 656.959 195.6 665.159 195.6H686.609V209.25H667.709C662.209 209.25 658.409 210.15 656.309 211.95C654.309 213.75 653.309 216 653.309 218.7C653.309 221.7 654.459 224.1 656.759 225.9C659.159 227.6 662.409 228.45 666.509 228.45C670.409 228.45 673.909 227.55 677.009 225.75C680.109 223.85 682.359 221.1 683.759 217.5L687.359 228.3C685.659 233.5 682.559 237.45 678.059 240.15C673.559 242.85 667.759 244.2 660.659 244.2ZM728.337 243V131.7H751.737V243H728.337ZM821.154 244.2C814.054 244.2 807.954 242.7 802.854 239.7C797.754 236.7 793.854 232.15 791.154 226.05C788.454 219.85 787.104 212.05 787.104 202.65C787.104 193.15 788.504 185.35 791.304 179.25C794.204 173.15 798.204 168.6 803.304 165.6C808.404 162.6 814.354 161.1 821.154 161.1C828.754 161.1 835.554 162.8 841.554 166.2C847.654 169.6 852.454 174.4 855.954 180.6C859.554 186.8 861.354 194.15 861.354 202.65C861.354 211.05 859.554 218.35 855.954 224.55C852.454 230.75 847.654 235.6 841.554 239.1C835.554 242.5 828.754 244.2 821.154 244.2ZM773.454 243V131.7H796.854V178.65L795.354 202.5L795.804 226.5V243H773.454ZM817.104 225C821.004 225 824.454 224.1 827.454 222.3C830.554 220.5 833.004 217.95 834.804 214.65C836.704 211.25 837.654 207.25 837.654 202.65C837.654 197.95 836.704 193.95 834.804 190.65C833.004 187.35 830.554 184.8 827.454 183C824.454 181.2 821.004 180.3 817.104 180.3C813.204 180.3 809.704 181.2 806.604 183C803.504 184.8 801.054 187.35 799.254 190.65C797.454 193.95 796.554 197.95 796.554 202.65C796.554 207.25 797.454 211.25 799.254 214.65C801.054 217.95 803.504 220.5 806.604 222.3C809.704 224.1 813.204 225 817.104 225ZM917.069 244.2C907.869 244.2 899.769 242.4 892.769 238.8C885.869 235.2 880.519 230.3 876.719 224.1C872.919 217.8 871.019 210.65 871.019 202.65C871.019 194.55 872.869 187.4 876.569 181.2C880.369 174.9 885.519 170 892.019 166.5C898.519 162.9 905.869 161.1 914.069 161.1C921.969 161.1 929.069 162.8 935.369 166.2C941.769 169.5 946.819 174.3 950.519 180.6C954.219 186.8 956.069 194.25 956.069 202.95C956.069 203.85 956.019 204.9 955.919 206.1C955.819 207.2 955.719 208.25 955.619 209.25H890.069V195.6H943.319L934.319 199.65C934.319 195.45 933.469 191.8 931.769 188.7C930.069 185.6 927.719 183.2 924.719 181.5C921.719 179.7 918.219 178.8 914.219 178.8C910.219 178.8 906.669 179.7 903.569 181.5C900.569 183.2 898.219 185.65 896.519 188.85C894.819 191.95 893.969 195.65 893.969 199.95V203.55C893.969 207.95 894.919 211.85 896.819 215.25C898.819 218.55 901.569 221.1 905.069 222.9C908.669 224.6 912.869 225.45 917.669 225.45C921.969 225.45 925.719 224.8 928.919 223.5C932.219 222.2 935.219 220.25 937.919 217.65L950.369 231.15C946.669 235.35 942.019 238.6 936.419 240.9C930.819 243.1 924.369 244.2 917.069 244.2Z" fill="white"/>
</g>
<defs>
<linearGradient id="paint0_linear_3_80" x1="266" y1="7" x2="266" y2="370" gradientUnits="userSpaceOnUse">
<stop offset="0.508826" stop-color="#791EA3"/>
<stop offset="0.965332" stop-color="#CDC4E4"/>
</linearGradient>
<linearGradient id="paint1_linear_3_80" x1="130.07" y1="347.296" x2="129" y2="-15.7023" gradientUnits="userSpaceOnUse">
<stop offset="0.508826" stop-color="#791EA3"/>
<stop offset="0.965332" stop-color="#CDC4E4"/>
</linearGradient>
<clipPath id="clip0_3_80">
<rect width="1028" height="362" fill="white"/>
</clipPath>
</defs>
</svg>
