<svg width="199" height="177" viewBox="0 0 199 177" fill="none" xmlns="http://www.w3.org/2000/svg">
<path d="M128.977 5.78476L62.9504 88.3179M162.925 46.6616L62.9289 171.63M13.0704 5.00538C11.5504 5.00389 10.061 5.43208 8.77396 6.24055C7.48688 7.04903 6.45455 8.20485 5.79602 9.57472C5.13749 10.9446 4.8796 12.4727 5.05209 13.9828C5.22457 15.4929 5.82041 16.9235 6.77087 18.1096L62.945 88.3179L6.77087 158.526C5.82041 159.712 5.22457 161.143 5.05209 162.653C4.8796 164.163 5.13749 165.691 5.79602 167.061C6.45455 168.431 7.48688 169.587 8.77396 170.395C10.061 171.204 11.5504 171.632 13.0704 171.63H125.725C126.935 171.631 128.129 171.359 129.22 170.835C130.31 170.311 131.269 169.549 132.025 168.604L192.224 93.3543C193.369 91.9243 193.993 90.147 193.993 88.3152C193.993 86.4833 193.369 84.7061 192.224 83.2761L132.025 8.02613C131.269 7.08142 130.31 6.31888 129.22 5.79504C128.129 5.27119 126.935 4.99947 125.725 5L13.0704 5.00538Z" stroke="white" stroke-width="9" stroke-linecap="round" stroke-linejoin="round"/>
</svg>
