<svg width="162" height="162" viewBox="0 0 162 162" fill="none" xmlns="http://www.w3.org/2000/svg">
<path d="M81 13.5C72.1358 13.5 63.3583 15.2459 55.1689 18.6381C46.9794 22.0303 39.5382 27.0023 33.2703 33.2703C20.6116 45.929 13.5 63.0979 13.5 81C13.5 110.835 32.8725 136.147 59.67 145.125C63.045 145.665 64.125 143.573 64.125 141.75V130.342C45.4275 134.392 41.445 121.297 41.445 121.297C38.34 113.467 33.9525 111.375 33.9525 111.375C27.81 107.19 34.425 107.325 34.425 107.325C41.175 107.797 44.7525 114.278 44.7525 114.278C50.625 124.538 60.5475 121.5 64.395 119.88C65.0025 115.493 66.7575 112.523 68.6475 110.835C53.6625 109.148 37.935 103.342 37.935 77.625C37.935 70.1325 40.5 64.125 44.8875 59.3325C44.2125 57.645 41.85 50.625 45.5625 41.5125C45.5625 41.5125 51.2325 39.69 64.125 48.3975C69.4575 46.9125 75.2625 46.17 81 46.17C86.7375 46.17 92.5425 46.9125 97.875 48.3975C110.767 39.69 116.438 41.5125 116.438 41.5125C120.15 50.625 117.788 57.645 117.113 59.3325C121.5 64.125 124.065 70.1325 124.065 77.625C124.065 103.41 108.27 109.08 93.2175 110.767C95.6475 112.86 97.875 116.978 97.875 123.255V141.75C97.875 143.573 98.955 145.733 102.398 145.125C129.195 136.08 148.5 110.835 148.5 81C148.5 72.1358 146.754 63.3583 143.362 55.1689C139.97 46.9794 134.998 39.5382 128.73 33.2703C122.462 27.0023 115.021 22.0303 106.831 18.6381C98.6417 15.2459 89.8642 13.5 81 13.5Z" fill="black"/>
</svg>
